<mxfile host="app.diagrams.net" modified="2023-06-15T10:53:26.573Z" agent="Mozilla/5.0 (Windows NT 10.0; Win64; x64) AppleWebKit/537.36 (KHTML, like Gecko) Chrome/114.0.0.0 Safari/537.36" etag="BiWH2N-cjPrf8uFi8lyT" version="21.4.0" type="device">
  <diagram name="Seite-1" id="PuUvwu1YvjgNKgVuXKM4">
    <mxGraphModel dx="2261" dy="1933" grid="1" gridSize="10" guides="1" tooltips="1" connect="1" arrows="1" fold="1" page="1" pageScale="1" pageWidth="827" pageHeight="1169" math="0" shadow="0">
      <root>
        <mxCell id="0" />
        <mxCell id="1" parent="0" />
        <mxCell id="EMkJ6KNOxDelHF8I2zOZ-5" value="" style="edgeStyle=orthogonalEdgeStyle;rounded=0;orthogonalLoop=1;jettySize=auto;html=1;endArrow=block;endFill=0;endSize=12;exitX=0.5;exitY=0;exitDx=0;exitDy=0;" parent="1" source="9dghq6FsNL-RzNGUjoit-1" target="EMkJ6KNOxDelHF8I2zOZ-1" edge="1">
          <mxGeometry relative="1" as="geometry" />
        </mxCell>
        <mxCell id="9dghq6FsNL-RzNGUjoit-1" value="Member" style="swimlane;fontStyle=0;childLayout=stackLayout;horizontal=1;startSize=26;fillColor=none;horizontalStack=0;resizeParent=1;resizeParentMax=0;resizeLast=0;collapsible=1;marginBottom=0;whiteSpace=wrap;html=1;" parent="1" vertex="1">
          <mxGeometry x="100" y="50" width="140" height="24" as="geometry" />
        </mxCell>
        <mxCell id="9dghq6FsNL-RzNGUjoit-5" value="Club" style="swimlane;fontStyle=0;childLayout=stackLayout;horizontal=1;startSize=26;fillColor=none;horizontalStack=0;resizeParent=1;resizeParentMax=0;resizeLast=0;collapsible=1;marginBottom=0;whiteSpace=wrap;html=1;" parent="1" vertex="1">
          <mxGeometry x="-20" y="224" width="180" height="182" as="geometry" />
        </mxCell>
        <mxCell id="9dghq6FsNL-RzNGUjoit-6" value="clubId[1] : PositiveInteger {id}" style="text;strokeColor=none;fillColor=none;align=left;verticalAlign=top;spacingLeft=4;spacingRight=4;overflow=hidden;rotatable=0;points=[[0,0.5],[1,0.5]];portConstraint=eastwest;whiteSpace=wrap;html=1;" parent="9dghq6FsNL-RzNGUjoit-5" vertex="1">
          <mxGeometry y="26" width="180" height="26" as="geometry" />
        </mxCell>
        <mxCell id="9dghq6FsNL-RzNGUjoit-7" value="name[1] : NonEmptyString" style="text;strokeColor=none;fillColor=none;align=left;verticalAlign=top;spacingLeft=4;spacingRight=4;overflow=hidden;rotatable=0;points=[[0,0.5],[1,0.5]];portConstraint=eastwest;whiteSpace=wrap;html=1;" parent="9dghq6FsNL-RzNGUjoit-5" vertex="1">
          <mxGeometry y="52" width="180" height="26" as="geometry" />
        </mxCell>
        <mxCell id="9dghq6FsNL-RzNGUjoit-8" value="status[1] : StatusEL" style="text;strokeColor=none;fillColor=none;align=left;verticalAlign=top;spacingLeft=4;spacingRight=4;overflow=hidden;rotatable=0;points=[[0,0.5],[1,0.5]];portConstraint=eastwest;whiteSpace=wrap;html=1;" parent="9dghq6FsNL-RzNGUjoit-5" vertex="1">
          <mxGeometry y="78" width="180" height="26" as="geometry" />
        </mxCell>
        <mxCell id="9dghq6FsNL-RzNGUjoit-19" value="fee[0..1] : PositiveFloat" style="text;strokeColor=none;fillColor=none;align=left;verticalAlign=top;spacingLeft=4;spacingRight=4;overflow=hidden;rotatable=0;points=[[0,0.5],[1,0.5]];portConstraint=eastwest;whiteSpace=wrap;html=1;" parent="9dghq6FsNL-RzNGUjoit-5" vertex="1">
          <mxGeometry y="104" width="180" height="26" as="geometry" />
        </mxCell>
        <mxCell id="PX0jKkkUrreEK9_YHUqZ-5" value="description[0..1] : String" style="text;strokeColor=none;fillColor=none;align=left;verticalAlign=top;spacingLeft=4;spacingRight=4;overflow=hidden;rotatable=0;points=[[0,0.5],[1,0.5]];portConstraint=eastwest;whiteSpace=wrap;html=1;" parent="9dghq6FsNL-RzNGUjoit-5" vertex="1">
          <mxGeometry y="130" width="180" height="26" as="geometry" />
        </mxCell>
        <mxCell id="PX0jKkkUrreEK9_YHUqZ-7" value="contactInformation[0..1] : String" style="text;strokeColor=none;fillColor=none;align=left;verticalAlign=top;spacingLeft=4;spacingRight=4;overflow=hidden;rotatable=0;points=[[0,0.5],[1,0.5]];portConstraint=eastwest;whiteSpace=wrap;html=1;" parent="9dghq6FsNL-RzNGUjoit-5" vertex="1">
          <mxGeometry y="156" width="180" height="26" as="geometry" />
        </mxCell>
        <mxCell id="9dghq6FsNL-RzNGUjoit-9" value="Schedule" style="swimlane;fontStyle=0;childLayout=stackLayout;horizontal=1;startSize=26;fillColor=none;horizontalStack=0;resizeParent=1;resizeParentMax=0;resizeLast=0;collapsible=1;marginBottom=0;whiteSpace=wrap;html=1;" parent="1" vertex="1">
          <mxGeometry x="-15" y="502" width="170" height="156" as="geometry" />
        </mxCell>
        <mxCell id="PX0jKkkUrreEK9_YHUqZ-8" value="startDate[1] : Date" style="text;strokeColor=none;fillColor=none;align=left;verticalAlign=top;spacingLeft=4;spacingRight=4;overflow=hidden;rotatable=0;points=[[0,0.5],[1,0.5]];portConstraint=eastwest;whiteSpace=wrap;html=1;" parent="9dghq6FsNL-RzNGUjoit-9" vertex="1">
          <mxGeometry y="26" width="170" height="26" as="geometry" />
        </mxCell>
        <mxCell id="PX0jKkkUrreEK9_YHUqZ-9" value="endDate[1] : Date" style="text;strokeColor=none;fillColor=none;align=left;verticalAlign=top;spacingLeft=4;spacingRight=4;overflow=hidden;rotatable=0;points=[[0,0.5],[1,0.5]];portConstraint=eastwest;whiteSpace=wrap;html=1;" parent="9dghq6FsNL-RzNGUjoit-9" vertex="1">
          <mxGeometry y="52" width="170" height="26" as="geometry" />
        </mxCell>
        <mxCell id="9dghq6FsNL-RzNGUjoit-11" value="daysInWeek[1] :&amp;nbsp;Weekdays" style="text;strokeColor=none;fillColor=none;align=left;verticalAlign=top;spacingLeft=4;spacingRight=4;overflow=hidden;rotatable=0;points=[[0,0.5],[1,0.5]];portConstraint=eastwest;whiteSpace=wrap;html=1;" parent="9dghq6FsNL-RzNGUjoit-9" vertex="1">
          <mxGeometry y="78" width="170" height="26" as="geometry" />
        </mxCell>
        <mxCell id="9dghq6FsNL-RzNGUjoit-12" value="time[1] : Tiime" style="text;strokeColor=none;fillColor=none;align=left;verticalAlign=top;spacingLeft=4;spacingRight=4;overflow=hidden;rotatable=0;points=[[0,0.5],[1,0.5]];portConstraint=eastwest;whiteSpace=wrap;html=1;" parent="9dghq6FsNL-RzNGUjoit-9" vertex="1">
          <mxGeometry y="104" width="170" height="26" as="geometry" />
        </mxCell>
        <mxCell id="9dghq6FsNL-RzNGUjoit-33" value="location[1] : NonEmptyString" style="text;strokeColor=none;fillColor=none;align=left;verticalAlign=top;spacingLeft=4;spacingRight=4;overflow=hidden;rotatable=0;points=[[0,0.5],[1,0.5]];portConstraint=eastwest;whiteSpace=wrap;html=1;" parent="9dghq6FsNL-RzNGUjoit-9" vertex="1">
          <mxGeometry y="130" width="170" height="26" as="geometry" />
        </mxCell>
        <mxCell id="9dghq6FsNL-RzNGUjoit-17" value="" style="endArrow=none;html=1;rounded=0;endFill=0;startArrow=oval;startFill=1;exitX=0.75;exitY=1;exitDx=0;exitDy=0;entryX=0.093;entryY=0.008;entryDx=0;entryDy=0;entryPerimeter=0;" parent="1" source="EMkJ6KNOxDelHF8I2zOZ-6" target="9dghq6FsNL-RzNGUjoit-5" edge="1">
          <mxGeometry relative="1" as="geometry">
            <mxPoint x="-11" y="74" as="sourcePoint" />
            <mxPoint x="-30" y="200" as="targetPoint" />
          </mxGeometry>
        </mxCell>
        <mxCell id="9dghq6FsNL-RzNGUjoit-18" value="listOfClubs" style="text;html=1;align=center;verticalAlign=middle;resizable=0;points=[];autosize=1;strokeColor=none;fillColor=none;" parent="1" vertex="1">
          <mxGeometry x="120" y="194" width="80" height="30" as="geometry" />
        </mxCell>
        <mxCell id="9dghq6FsNL-RzNGUjoit-21" value="*" style="text;html=1;align=center;verticalAlign=middle;resizable=0;points=[];autosize=1;strokeColor=none;fillColor=none;" parent="1" vertex="1">
          <mxGeometry x="90" y="74" width="30" height="30" as="geometry" />
        </mxCell>
        <mxCell id="9dghq6FsNL-RzNGUjoit-22" value="*" style="text;html=1;align=center;verticalAlign=middle;resizable=0;points=[];autosize=1;strokeColor=none;fillColor=none;" parent="1" vertex="1">
          <mxGeometry x="90" y="194" width="30" height="30" as="geometry" />
        </mxCell>
        <mxCell id="9dghq6FsNL-RzNGUjoit-23" value="" style="endArrow=oval;html=1;rounded=0;entryX=1;entryY=0;entryDx=0;entryDy=0;startArrow=oval;startFill=1;endFill=1;" parent="1" edge="1">
          <mxGeometry relative="1" as="geometry">
            <mxPoint x="120" y="80" as="sourcePoint" />
            <mxPoint x="120" y="222" as="targetPoint" />
          </mxGeometry>
        </mxCell>
        <mxCell id="9dghq6FsNL-RzNGUjoit-24" value="trainers" style="text;html=1;align=center;verticalAlign=middle;resizable=0;points=[];autosize=1;strokeColor=none;fillColor=none;" parent="1" vertex="1">
          <mxGeometry x="-160" y="70" width="60" height="30" as="geometry" />
        </mxCell>
        <mxCell id="9dghq6FsNL-RzNGUjoit-25" value="1..*" style="text;html=1;align=center;verticalAlign=middle;resizable=0;points=[];autosize=1;strokeColor=none;fillColor=none;" parent="1" vertex="1">
          <mxGeometry x="-10" y="70" width="40" height="30" as="geometry" />
        </mxCell>
        <mxCell id="9dghq6FsNL-RzNGUjoit-26" value="*" style="text;html=1;align=center;verticalAlign=middle;resizable=0;points=[];autosize=1;strokeColor=none;fillColor=none;" parent="1" vertex="1">
          <mxGeometry x="-10" y="200" width="30" height="30" as="geometry" />
        </mxCell>
        <mxCell id="9dghq6FsNL-RzNGUjoit-27" value="membersOfClub" style="text;html=1;align=center;verticalAlign=middle;resizable=0;points=[];autosize=1;strokeColor=none;fillColor=none;" parent="1" vertex="1">
          <mxGeometry x="120" y="75" width="110" height="30" as="geometry" />
        </mxCell>
        <mxCell id="9dghq6FsNL-RzNGUjoit-29" style="rounded=0;orthogonalLoop=1;jettySize=auto;html=1;exitX=0.5;exitY=0;exitDx=0;exitDy=0;endArrow=oval;endFill=1;entryX=0.347;entryY=1.154;entryDx=0;entryDy=0;entryPerimeter=0;" parent="1" source="9dghq6FsNL-RzNGUjoit-9" edge="1">
          <mxGeometry relative="1" as="geometry">
            <mxPoint x="68.98999999999978" y="410.0039999999999" as="targetPoint" />
          </mxGeometry>
        </mxCell>
        <mxCell id="9dghq6FsNL-RzNGUjoit-30" value="0..1" style="text;html=1;align=center;verticalAlign=middle;resizable=0;points=[];autosize=1;strokeColor=none;fillColor=none;" parent="1" vertex="1">
          <mxGeometry x="30" y="472" width="40" height="30" as="geometry" />
        </mxCell>
        <mxCell id="9dghq6FsNL-RzNGUjoit-31" value="1" style="text;html=1;align=center;verticalAlign=middle;resizable=0;points=[];autosize=1;strokeColor=none;fillColor=none;" parent="1" vertex="1">
          <mxGeometry x="40" y="406" width="30" height="30" as="geometry" />
        </mxCell>
        <mxCell id="9dghq6FsNL-RzNGUjoit-32" value="clubId" style="text;html=1;align=center;verticalAlign=middle;resizable=0;points=[];autosize=1;strokeColor=none;fillColor=none;" parent="1" vertex="1">
          <mxGeometry x="65" y="406" width="60" height="30" as="geometry" />
        </mxCell>
        <mxCell id="e8esufQxgk4ulArJOHBm-1" value="&lt;div style=&quot;&quot;&gt;&lt;div&gt;«invariant»&lt;/div&gt;&lt;div style=&quot;text-align: left;&quot;&gt;&lt;span style=&quot;background-color: initial;&quot;&gt;&amp;nbsp;- Members can only join, when the club status is open or in the beta-phase&lt;/span&gt;&lt;/div&gt;&lt;div style=&quot;text-align: left;&quot;&gt;&amp;nbsp;- A person can&#39;t be a trainer and a member of the same club&lt;/div&gt;&lt;/div&gt;" style="shape=note;size=20;whiteSpace=wrap;html=1;" parent="1" vertex="1">
          <mxGeometry x="210" y="290" width="370" height="90" as="geometry" />
        </mxCell>
        <mxCell id="e8esufQxgk4ulArJOHBm-3" style="rounded=0;orthogonalLoop=1;jettySize=auto;html=1;exitX=0;exitY=0.3;exitDx=0;exitDy=0;endArrow=none;endFill=0;exitPerimeter=0;entryX=1;entryY=0.5;entryDx=0;entryDy=0;dashed=1;dashPattern=8 8;" parent="1" source="e8esufQxgk4ulArJOHBm-1" target="9dghq6FsNL-RzNGUjoit-8" edge="1">
          <mxGeometry relative="1" as="geometry">
            <mxPoint x="480" y="335" as="sourcePoint" />
            <mxPoint x="650" y="260" as="targetPoint" />
          </mxGeometry>
        </mxCell>
        <mxCell id="e8esufQxgk4ulArJOHBm-4" value="&lt;div style=&quot;&quot;&gt;&lt;div&gt;«invariant»&lt;/div&gt;&lt;div style=&quot;text-align: left;&quot;&gt;&lt;span style=&quot;background-color: initial;&quot;&gt;&amp;nbsp;-&amp;nbsp;&lt;/span&gt;When you are a member of a club with status beta-phase&lt;span style=&quot;background-color: initial;&quot;&gt;, then you don&#39;t have a fee to pay.&lt;/span&gt;&lt;/div&gt;&lt;/div&gt;" style="shape=note;size=20;whiteSpace=wrap;html=1;" parent="1" vertex="1">
          <mxGeometry x="320" y="10" width="370" height="65" as="geometry" />
        </mxCell>
        <mxCell id="e8esufQxgk4ulArJOHBm-5" style="rounded=0;orthogonalLoop=1;jettySize=auto;html=1;exitX=0.003;exitY=0.646;exitDx=0;exitDy=0;endArrow=none;endFill=0;exitPerimeter=0;entryX=1;entryY=0.25;entryDx=0;entryDy=0;dashed=1;dashPattern=8 8;" parent="1" source="e8esufQxgk4ulArJOHBm-4" target="9dghq6FsNL-RzNGUjoit-1" edge="1">
          <mxGeometry relative="1" as="geometry">
            <mxPoint x="18" y="468" as="sourcePoint" />
            <mxPoint x="164.96000000000004" y="100.00199999999995" as="targetPoint" />
          </mxGeometry>
        </mxCell>
        <mxCell id="e8esufQxgk4ulArJOHBm-8" value="" style="endArrow=none;html=1;entryX=-0.021;entryY=0.077;entryDx=0;entryDy=0;startArrow=oval;startFill=1;entryPerimeter=0;jumpStyle=none;rounded=0;edgeStyle=orthogonalEdgeStyle;exitX=0.064;exitY=1.083;exitDx=0;exitDy=0;exitPerimeter=0;" parent="1" source="EMkJ6KNOxDelHF8I2zOZ-6" target="9dghq6FsNL-RzNGUjoit-7" edge="1">
          <mxGeometry relative="1" as="geometry">
            <mxPoint x="-100" y="100" as="sourcePoint" />
            <mxPoint x="490" y="260" as="targetPoint" />
          </mxGeometry>
        </mxCell>
        <mxCell id="e8esufQxgk4ulArJOHBm-9" value="chairs" style="text;html=1;align=center;verticalAlign=middle;resizable=0;points=[];autosize=1;strokeColor=none;fillColor=none;" parent="1" vertex="1">
          <mxGeometry x="-60" y="70" width="60" height="30" as="geometry" />
        </mxCell>
        <mxCell id="e8esufQxgk4ulArJOHBm-10" value="1..*" style="text;html=1;align=center;verticalAlign=middle;resizable=0;points=[];autosize=1;strokeColor=none;fillColor=none;" parent="1" vertex="1">
          <mxGeometry x="-110" y="70" width="40" height="30" as="geometry" />
        </mxCell>
        <mxCell id="e8esufQxgk4ulArJOHBm-11" value="*" style="text;html=1;align=center;verticalAlign=middle;resizable=0;points=[];autosize=1;strokeColor=none;fillColor=none;" parent="1" vertex="1">
          <mxGeometry x="-50" y="250" width="30" height="30" as="geometry" />
        </mxCell>
        <mxCell id="EMkJ6KNOxDelHF8I2zOZ-1" value="Person" style="swimlane;fontStyle=0;childLayout=stackLayout;horizontal=1;startSize=26;fillColor=none;horizontalStack=0;resizeParent=1;resizeParentMax=0;resizeLast=0;collapsible=1;marginBottom=0;whiteSpace=wrap;html=1;" parent="1" vertex="1">
          <mxGeometry x="100" y="-150" width="240" height="104" as="geometry" />
        </mxCell>
        <mxCell id="EMkJ6KNOxDelHF8I2zOZ-2" value="personId[1] : PositiveInteger {id}" style="text;strokeColor=none;fillColor=none;align=left;verticalAlign=top;spacingLeft=4;spacingRight=4;overflow=hidden;rotatable=0;points=[[0,0.5],[1,0.5]];portConstraint=eastwest;whiteSpace=wrap;html=1;" parent="EMkJ6KNOxDelHF8I2zOZ-1" vertex="1">
          <mxGeometry y="26" width="240" height="26" as="geometry" />
        </mxCell>
        <mxCell id="EMkJ6KNOxDelHF8I2zOZ-3" value="name[1] : NonEmptyString" style="text;strokeColor=none;fillColor=none;align=left;verticalAlign=top;spacingLeft=4;spacingRight=4;overflow=hidden;rotatable=0;points=[[0,0.5],[1,0.5]];portConstraint=eastwest;whiteSpace=wrap;html=1;" parent="EMkJ6KNOxDelHF8I2zOZ-1" vertex="1">
          <mxGeometry y="52" width="240" height="26" as="geometry" />
        </mxCell>
        <mxCell id="EMkJ6KNOxDelHF8I2zOZ-4" value="type[1] : PersonTypeEL" style="text;strokeColor=none;fillColor=none;align=left;verticalAlign=top;spacingLeft=4;spacingRight=4;overflow=hidden;rotatable=0;points=[[0,0.5],[1,0.5]];portConstraint=eastwest;whiteSpace=wrap;html=1;" parent="EMkJ6KNOxDelHF8I2zOZ-1" vertex="1">
          <mxGeometry y="78" width="240" height="26" as="geometry" />
        </mxCell>
        <mxCell id="EMkJ6KNOxDelHF8I2zOZ-10" style="edgeStyle=orthogonalEdgeStyle;rounded=0;orthogonalLoop=1;jettySize=auto;html=1;exitX=0.5;exitY=0;exitDx=0;exitDy=0;endArrow=none;endFill=0;" parent="1" source="EMkJ6KNOxDelHF8I2zOZ-6" edge="1">
          <mxGeometry relative="1" as="geometry">
            <mxPoint x="220" y="-30" as="targetPoint" />
          </mxGeometry>
        </mxCell>
        <mxCell id="EMkJ6KNOxDelHF8I2zOZ-6" value="Staff" style="swimlane;fontStyle=0;childLayout=stackLayout;horizontal=1;startSize=26;fillColor=none;horizontalStack=0;resizeParent=1;resizeParentMax=0;resizeLast=0;collapsible=1;marginBottom=0;whiteSpace=wrap;html=1;" parent="1" vertex="1">
          <mxGeometry x="-110" y="46" width="140" height="24" as="geometry" />
        </mxCell>
        <mxCell id="EMkJ6KNOxDelHF8I2zOZ-14" value="{complete}" style="text;html=1;align=center;verticalAlign=middle;resizable=0;points=[];autosize=1;strokeColor=none;fillColor=none;" parent="1" vertex="1">
          <mxGeometry x="140" y="-20" width="80" height="30" as="geometry" />
        </mxCell>
        <mxCell id="EMkJ6KNOxDelHF8I2zOZ-16" value="&lt;div&gt;«enumaration»&lt;/div&gt;&lt;div&gt;PersonTypeEL&lt;/div&gt;" style="swimlane;fontStyle=0;childLayout=stackLayout;horizontal=1;startSize=38;fillColor=none;horizontalStack=0;resizeParent=1;resizeParentMax=0;resizeLast=0;collapsible=1;marginBottom=0;whiteSpace=wrap;html=1;" parent="1" vertex="1">
          <mxGeometry x="380" y="-162" width="140" height="116" as="geometry" />
        </mxCell>
        <mxCell id="EMkJ6KNOxDelHF8I2zOZ-17" value="STUDENT" style="text;strokeColor=none;fillColor=none;align=left;verticalAlign=top;spacingLeft=4;spacingRight=4;overflow=hidden;rotatable=0;points=[[0,0.5],[1,0.5]];portConstraint=eastwest;whiteSpace=wrap;html=1;" parent="EMkJ6KNOxDelHF8I2zOZ-16" vertex="1">
          <mxGeometry y="38" width="140" height="26" as="geometry" />
        </mxCell>
        <mxCell id="EMkJ6KNOxDelHF8I2zOZ-18" value="EMPLOYEE" style="text;strokeColor=none;fillColor=none;align=left;verticalAlign=top;spacingLeft=4;spacingRight=4;overflow=hidden;rotatable=0;points=[[0,0.5],[1,0.5]];portConstraint=eastwest;whiteSpace=wrap;html=1;" parent="EMkJ6KNOxDelHF8I2zOZ-16" vertex="1">
          <mxGeometry y="64" width="140" height="26" as="geometry" />
        </mxCell>
        <mxCell id="EMkJ6KNOxDelHF8I2zOZ-19" value="GUEST" style="text;strokeColor=none;fillColor=none;align=left;verticalAlign=top;spacingLeft=4;spacingRight=4;overflow=hidden;rotatable=0;points=[[0,0.5],[1,0.5]];portConstraint=eastwest;whiteSpace=wrap;html=1;" parent="EMkJ6KNOxDelHF8I2zOZ-16" vertex="1">
          <mxGeometry y="90" width="140" height="26" as="geometry" />
        </mxCell>
        <mxCell id="PX0jKkkUrreEK9_YHUqZ-1" value="&lt;div&gt;«enumaration»&lt;/div&gt;&lt;div&gt;StatusEL&lt;/div&gt;" style="swimlane;fontStyle=0;childLayout=stackLayout;horizontal=1;startSize=38;fillColor=none;horizontalStack=0;resizeParent=1;resizeParentMax=0;resizeLast=0;collapsible=1;marginBottom=0;whiteSpace=wrap;html=1;" parent="1" vertex="1">
          <mxGeometry x="300" y="114" width="140" height="142" as="geometry" />
        </mxCell>
        <mxCell id="PX0jKkkUrreEK9_YHUqZ-2" value="OPEN" style="text;strokeColor=none;fillColor=none;align=left;verticalAlign=top;spacingLeft=4;spacingRight=4;overflow=hidden;rotatable=0;points=[[0,0.5],[1,0.5]];portConstraint=eastwest;whiteSpace=wrap;html=1;" parent="PX0jKkkUrreEK9_YHUqZ-1" vertex="1">
          <mxGeometry y="38" width="140" height="26" as="geometry" />
        </mxCell>
        <mxCell id="PX0jKkkUrreEK9_YHUqZ-3" value="INACTIVE" style="text;strokeColor=none;fillColor=none;align=left;verticalAlign=top;spacingLeft=4;spacingRight=4;overflow=hidden;rotatable=0;points=[[0,0.5],[1,0.5]];portConstraint=eastwest;whiteSpace=wrap;html=1;" parent="PX0jKkkUrreEK9_YHUqZ-1" vertex="1">
          <mxGeometry y="64" width="140" height="26" as="geometry" />
        </mxCell>
        <mxCell id="PX0jKkkUrreEK9_YHUqZ-4" value="FULL" style="text;strokeColor=none;fillColor=none;align=left;verticalAlign=top;spacingLeft=4;spacingRight=4;overflow=hidden;rotatable=0;points=[[0,0.5],[1,0.5]];portConstraint=eastwest;whiteSpace=wrap;html=1;" parent="PX0jKkkUrreEK9_YHUqZ-1" vertex="1">
          <mxGeometry y="90" width="140" height="26" as="geometry" />
        </mxCell>
        <mxCell id="PX0jKkkUrreEK9_YHUqZ-6" value="BETA_PHASE" style="text;strokeColor=none;fillColor=none;align=left;verticalAlign=top;spacingLeft=4;spacingRight=4;overflow=hidden;rotatable=0;points=[[0,0.5],[1,0.5]];portConstraint=eastwest;whiteSpace=wrap;html=1;" parent="PX0jKkkUrreEK9_YHUqZ-1" vertex="1">
          <mxGeometry y="116" width="140" height="26" as="geometry" />
        </mxCell>
      </root>
    </mxGraphModel>
  </diagram>
</mxfile>
